<svg width="354" height="153" viewBox="0 0 354 153" fill="none" xmlns="http://www.w3.org/2000/svg">
<g filter="url(#filter0_d_95_20)">
<path d="M4 0L38.1635 127.5L66.7424 78H121L4 0Z" fill="white"/>
</g>
<path d="M14 13.2654L39.9825 110.996L60.6498 72.7796L100.53 72.4246L14 13.2654Z" fill="#A537FF"/>
<rect x="121" y="103" width="233" height="50" rx="25" fill="#A537FF"/>
<path d="M160.818 125.455L158.409 126.136C158.258 125.735 158.034 125.345 157.739 124.966C157.451 124.58 157.057 124.261 156.557 124.011C156.057 123.761 155.417 123.636 154.636 123.636C153.568 123.636 152.678 123.883 151.966 124.375C151.261 124.86 150.909 125.477 150.909 126.227C150.909 126.894 151.152 127.42 151.636 127.807C152.121 128.193 152.879 128.515 153.909 128.773L156.5 129.409C158.061 129.788 159.223 130.367 159.989 131.148C160.754 131.92 161.136 132.917 161.136 134.136C161.136 135.136 160.848 136.03 160.273 136.818C159.705 137.606 158.909 138.227 157.886 138.682C156.864 139.136 155.674 139.364 154.318 139.364C152.538 139.364 151.064 138.977 149.898 138.205C148.731 137.432 147.992 136.303 147.682 134.818L150.227 134.182C150.47 135.121 150.928 135.826 151.602 136.295C152.284 136.765 153.174 137 154.273 137C155.523 137 156.515 136.735 157.25 136.205C157.992 135.667 158.364 135.023 158.364 134.273C158.364 133.667 158.152 133.159 157.727 132.75C157.303 132.333 156.652 132.023 155.773 131.818L152.864 131.136C151.265 130.758 150.091 130.17 149.341 129.375C148.598 128.572 148.227 127.568 148.227 126.364C148.227 125.379 148.504 124.508 149.057 123.75C149.617 122.992 150.379 122.398 151.341 121.966C152.311 121.534 153.409 121.318 154.636 121.318C156.364 121.318 157.72 121.697 158.705 122.455C159.697 123.212 160.402 124.212 160.818 125.455ZM172.264 139.364C170.688 139.364 169.306 138.989 168.116 138.239C166.935 137.489 166.01 136.439 165.344 135.091C164.685 133.742 164.355 132.167 164.355 130.364C164.355 128.545 164.685 126.958 165.344 125.602C166.01 124.246 166.935 123.193 168.116 122.443C169.306 121.693 170.688 121.318 172.264 121.318C173.84 121.318 175.219 121.693 176.401 122.443C177.59 123.193 178.514 124.246 179.173 125.602C179.84 126.958 180.173 128.545 180.173 130.364C180.173 132.167 179.84 133.742 179.173 135.091C178.514 136.439 177.59 137.489 176.401 138.239C175.219 138.989 173.84 139.364 172.264 139.364ZM172.264 136.955C173.461 136.955 174.446 136.648 175.219 136.034C175.991 135.42 176.563 134.614 176.935 133.614C177.306 132.614 177.491 131.53 177.491 130.364C177.491 129.197 177.306 128.11 176.935 127.102C176.563 126.095 175.991 125.28 175.219 124.659C174.446 124.038 173.461 123.727 172.264 123.727C171.067 123.727 170.082 124.038 169.31 124.659C168.537 125.28 167.965 126.095 167.594 127.102C167.223 128.11 167.037 129.197 167.037 130.364C167.037 131.53 167.223 132.614 167.594 133.614C167.965 134.614 168.537 135.42 169.31 136.034C170.082 136.648 171.067 136.955 172.264 136.955ZM195.267 131.864V121.545H197.949V139H195.267V136.045H195.085C194.676 136.932 194.04 137.686 193.176 138.307C192.313 138.92 191.222 139.227 189.903 139.227C188.812 139.227 187.843 138.989 186.994 138.511C186.146 138.027 185.479 137.299 184.994 136.33C184.509 135.352 184.267 134.121 184.267 132.636V121.545H186.949V132.455C186.949 133.727 187.305 134.742 188.017 135.5C188.737 136.258 189.653 136.636 190.767 136.636C191.434 136.636 192.112 136.466 192.801 136.125C193.498 135.784 194.081 135.261 194.551 134.557C195.028 133.852 195.267 132.955 195.267 131.864ZM202.861 139V121.545H205.452V124.273H205.679C206.043 123.341 206.63 122.617 207.44 122.102C208.251 121.58 209.224 121.318 210.361 121.318C211.512 121.318 212.471 121.58 213.236 122.102C214.009 122.617 214.611 123.341 215.043 124.273H215.224C215.671 123.371 216.342 122.655 217.236 122.125C218.13 121.587 219.202 121.318 220.452 121.318C222.012 121.318 223.289 121.807 224.281 122.784C225.274 123.754 225.77 125.265 225.77 127.318V139H223.088V127.318C223.088 126.03 222.736 125.11 222.031 124.557C221.327 124.004 220.497 123.727 219.543 123.727C218.315 123.727 217.365 124.098 216.69 124.841C216.016 125.576 215.679 126.508 215.679 127.636V139H212.952V127.045C212.952 126.053 212.63 125.254 211.986 124.648C211.342 124.034 210.512 123.727 209.497 123.727C208.8 123.727 208.149 123.913 207.543 124.284C206.944 124.655 206.459 125.17 206.088 125.83C205.724 126.481 205.543 127.235 205.543 128.091V139H202.861ZM237.764 139.364C236.188 139.364 234.806 138.989 233.616 138.239C232.435 137.489 231.51 136.439 230.844 135.091C230.185 133.742 229.855 132.167 229.855 130.364C229.855 128.545 230.185 126.958 230.844 125.602C231.51 124.246 232.435 123.193 233.616 122.443C234.806 121.693 236.188 121.318 237.764 121.318C239.34 121.318 240.719 121.693 241.901 122.443C243.09 123.193 244.014 124.246 244.673 125.602C245.34 126.958 245.673 128.545 245.673 130.364C245.673 132.167 245.34 133.742 244.673 135.091C244.014 136.439 243.09 137.489 241.901 138.239C240.719 138.989 239.34 139.364 237.764 139.364ZM237.764 136.955C238.961 136.955 239.946 136.648 240.719 136.034C241.491 135.42 242.063 134.614 242.435 133.614C242.806 132.614 242.991 131.53 242.991 130.364C242.991 129.197 242.806 128.11 242.435 127.102C242.063 126.095 241.491 125.28 240.719 124.659C239.946 124.038 238.961 123.727 237.764 123.727C236.567 123.727 235.582 124.038 234.81 124.659C234.037 125.28 233.465 126.095 233.094 127.102C232.723 128.11 232.537 129.197 232.537 130.364C232.537 131.53 232.723 132.614 233.094 133.614C233.465 134.614 234.037 135.42 234.81 136.034C235.582 136.648 236.567 136.955 237.764 136.955ZM249.767 121.545H252.449V140.273C252.449 141.348 252.263 142.28 251.892 143.068C251.528 143.856 250.975 144.466 250.233 144.898C249.498 145.33 248.57 145.545 247.449 145.545C247.358 145.545 247.267 145.545 247.176 145.545C247.085 145.545 246.994 145.545 246.903 145.545V143.045C246.994 143.045 247.078 143.045 247.153 143.045C247.229 143.045 247.312 143.045 247.403 143.045C248.222 143.045 248.82 142.803 249.199 142.318C249.578 141.841 249.767 141.159 249.767 140.273V121.545ZM251.085 118.636C250.563 118.636 250.112 118.458 249.733 118.102C249.362 117.746 249.176 117.318 249.176 116.818C249.176 116.318 249.362 115.89 249.733 115.534C250.112 115.178 250.563 115 251.085 115C251.608 115 252.055 115.178 252.426 115.534C252.805 115.89 252.994 116.318 252.994 116.818C252.994 117.318 252.805 117.746 252.426 118.102C252.055 118.458 251.608 118.636 251.085 118.636ZM257.361 139V121.545H260.043V139H257.361ZM258.724 118.636C258.202 118.636 257.751 118.458 257.372 118.102C257.001 117.746 256.815 117.318 256.815 116.818C256.815 116.318 257.001 115.89 257.372 115.534C257.751 115.178 258.202 115 258.724 115C259.247 115 259.694 115.178 260.065 115.534C260.444 115.89 260.634 116.318 260.634 116.818C260.634 117.318 260.444 117.746 260.065 118.102C259.694 118.458 259.247 118.636 258.724 118.636ZM272.545 121.545V123.818H263.5V121.545H272.545ZM266.136 117.364H268.818V134C268.818 134.758 268.928 135.326 269.148 135.705C269.375 136.076 269.663 136.326 270.011 136.455C270.367 136.576 270.742 136.636 271.136 136.636C271.432 136.636 271.674 136.621 271.864 136.591C272.053 136.553 272.205 136.523 272.318 136.5L272.864 138.909C272.682 138.977 272.428 139.045 272.102 139.114C271.777 139.189 271.364 139.227 270.864 139.227C270.106 139.227 269.364 139.064 268.636 138.739C267.917 138.413 267.318 137.917 266.841 137.25C266.371 136.583 266.136 135.742 266.136 134.727V117.364ZM284.125 139.318C282.413 139.318 280.955 138.852 279.75 137.92C278.545 136.981 277.625 135.621 276.989 133.841C276.352 132.053 276.034 129.894 276.034 127.364C276.034 124.848 276.352 122.701 276.989 120.92C277.633 119.133 278.557 117.769 279.761 116.83C280.973 115.883 282.428 115.409 284.125 115.409C285.822 115.409 287.273 115.883 288.477 116.83C289.689 117.769 290.614 119.133 291.25 120.92C291.894 122.701 292.216 124.848 292.216 127.364C292.216 129.894 291.898 132.053 291.261 133.841C290.625 135.621 289.705 136.981 288.5 137.92C287.295 138.852 285.837 139.318 284.125 139.318ZM284.125 136.818C285.822 136.818 287.14 136 288.08 134.364C289.019 132.727 289.489 130.394 289.489 127.364C289.489 125.348 289.273 123.633 288.841 122.216C288.417 120.799 287.803 119.72 287 118.977C286.205 118.235 285.246 117.864 284.125 117.864C282.443 117.864 281.129 118.693 280.182 120.352C279.235 122.004 278.761 124.341 278.761 127.364C278.761 129.379 278.973 131.091 279.398 132.5C279.822 133.909 280.432 134.981 281.227 135.716C282.03 136.451 282.996 136.818 284.125 136.818ZM303.989 139.318C302.428 139.318 301.049 139.042 299.852 138.489C298.663 137.928 297.735 137.159 297.068 136.182C296.402 135.197 296.072 134.076 296.08 132.818C296.072 131.833 296.265 130.924 296.659 130.091C297.053 129.25 297.591 128.549 298.273 127.989C298.962 127.42 299.731 127.061 300.58 126.909V126.773C299.466 126.485 298.58 125.86 297.92 124.898C297.261 123.928 296.936 122.826 296.943 121.591C296.936 120.409 297.235 119.352 297.841 118.42C298.447 117.489 299.28 116.754 300.341 116.216C301.409 115.678 302.625 115.409 303.989 115.409C305.337 115.409 306.542 115.678 307.602 116.216C308.663 116.754 309.496 117.489 310.102 118.42C310.716 119.352 311.027 120.409 311.034 121.591C311.027 122.826 310.689 123.928 310.023 124.898C309.364 125.86 308.489 126.485 307.398 126.773V126.909C308.239 127.061 308.996 127.42 309.67 127.989C310.345 128.549 310.883 129.25 311.284 130.091C311.686 130.924 311.89 131.833 311.898 132.818C311.89 134.076 311.549 135.197 310.875 136.182C310.208 137.159 309.28 137.928 308.091 138.489C306.909 139.042 305.542 139.318 303.989 139.318ZM303.989 136.818C305.042 136.818 305.951 136.648 306.716 136.307C307.481 135.966 308.072 135.485 308.489 134.864C308.905 134.242 309.117 133.515 309.125 132.682C309.117 131.803 308.89 131.027 308.443 130.352C307.996 129.678 307.386 129.148 306.614 128.761C305.848 128.375 304.973 128.182 303.989 128.182C302.996 128.182 302.11 128.375 301.33 128.761C300.557 129.148 299.947 129.678 299.5 130.352C299.061 131.027 298.845 131.803 298.852 132.682C298.845 133.515 299.045 134.242 299.455 134.864C299.871 135.485 300.466 135.966 301.239 136.307C302.011 136.648 302.928 136.818 303.989 136.818ZM303.989 125.773C304.822 125.773 305.561 125.606 306.205 125.273C306.856 124.939 307.367 124.473 307.739 123.875C308.11 123.277 308.299 122.576 308.307 121.773C308.299 120.985 308.114 120.299 307.75 119.716C307.386 119.125 306.883 118.67 306.239 118.352C305.595 118.027 304.845 117.864 303.989 117.864C303.117 117.864 302.356 118.027 301.705 118.352C301.053 118.67 300.549 119.125 300.193 119.716C299.837 120.299 299.663 120.985 299.67 121.773C299.663 122.576 299.841 123.277 300.205 123.875C300.576 124.473 301.087 124.939 301.739 125.273C302.39 125.606 303.14 125.773 303.989 125.773Z" fill="white"/>
<defs>
<filter id="filter0_d_95_20" x="0" y="0" width="125" height="135.5" filterUnits="userSpaceOnUse" color-interpolation-filters="sRGB">
<feFlood flood-opacity="0" result="BackgroundImageFix"/>
<feColorMatrix in="SourceAlpha" type="matrix" values="0 0 0 0 0 0 0 0 0 0 0 0 0 0 0 0 0 0 127 0" result="hardAlpha"/>
<feOffset dy="4"/>
<feGaussianBlur stdDeviation="2"/>
<feComposite in2="hardAlpha" operator="out"/>
<feColorMatrix type="matrix" values="0 0 0 0 0 0 0 0 0 0 0 0 0 0 0 0 0 0 0.25 0"/>
<feBlend mode="normal" in2="BackgroundImageFix" result="effect1_dropShadow_95_20"/>
<feBlend mode="normal" in="SourceGraphic" in2="effect1_dropShadow_95_20" result="shape"/>
</filter>
</defs>
</svg>
