<svg width="233" height="328" viewBox="0 0 233 328" fill="none" xmlns="http://www.w3.org/2000/svg">
<g filter="url(#filter0_d_96_18)">
<path d="M2.8 159.18C2.8 109.587 11.1133 70.8866 27.74 43.08C44.6533 14.9866 73.6067 0.939981 114.6 0.939981C155.593 0.939981 184.403 14.9866 201.03 43.08C217.943 70.8866 226.4 109.587 226.4 159.18C226.4 209.347 217.943 248.62 201.03 277C184.403 305.093 155.593 319.14 114.6 319.14C73.6067 319.14 44.6533 305.093 27.74 277C11.1133 248.62 2.8 209.347 2.8 159.18ZM178.24 159.18C178.24 135.96 176.663 116.323 173.51 100.27C170.643 84.2167 164.623 71.1733 155.45 61.14C146.277 50.82 132.66 45.66 114.6 45.66C96.54 45.66 82.9233 50.82 73.75 61.14C64.5767 71.1733 58.4133 84.2167 55.26 100.27C52.3933 116.323 50.96 135.96 50.96 159.18C50.96 183.26 52.3933 203.47 55.26 219.81C58.1267 236.15 64.1467 249.337 73.32 259.37C82.78 269.403 96.54 274.42 114.6 274.42C132.66 274.42 146.277 269.403 155.45 259.37C164.91 249.337 171.073 236.15 173.94 219.81C176.807 203.47 178.24 183.26 178.24 159.18Z" fill="white"/>
</g>
<defs>
<filter id="filter0_d_96_18" x="0.800049" y="0.939941" width="231.6" height="326.2" filterUnits="userSpaceOnUse" color-interpolation-filters="sRGB">
<feFlood flood-opacity="0" result="BackgroundImageFix"/>
<feColorMatrix in="SourceAlpha" type="matrix" values="0 0 0 0 0 0 0 0 0 0 0 0 0 0 0 0 0 0 127 0" result="hardAlpha"/>
<feOffset dx="2" dy="4"/>
<feGaussianBlur stdDeviation="2"/>
<feComposite in2="hardAlpha" operator="out"/>
<feColorMatrix type="matrix" values="0 0 0 0 0 0 0 0 0 0 0 0 0 0 0 0 0 0 0.25 0"/>
<feBlend mode="normal" in2="BackgroundImageFix" result="effect1_dropShadow_96_18"/>
<feBlend mode="normal" in="SourceGraphic" in2="effect1_dropShadow_96_18" result="shape"/>
</filter>
</defs>
</svg>
