<svg width="231" height="336" viewBox="0 0 231 336" fill="none" xmlns="http://www.w3.org/2000/svg">
<g filter="url(#filter0_d_96_20)">
<path d="M54.69 156.17C24.8767 141.263 9.97 117.757 9.97 85.65C9.97 70.17 13.84 55.98 21.58 43.08C29.32 30.18 40.93 20.0033 56.41 12.55C71.89 4.80998 90.81 0.939981 113.17 0.939981C135.243 0.939981 154.02 4.80998 169.5 12.55C185.267 20.0033 197.02 30.18 204.76 43.08C212.5 55.98 216.37 70.17 216.37 85.65C216.37 101.703 212.213 115.893 203.9 128.22C195.873 140.26 185.123 149.577 171.65 156.17C187.99 162.19 200.89 172.08 210.35 185.84C219.81 199.313 224.54 215.223 224.54 233.57C224.54 252.203 219.81 268.687 210.35 283.02C200.89 297.353 187.703 308.39 170.79 316.13C153.877 323.87 134.67 327.74 113.17 327.74C91.67 327.74 72.4633 323.87 55.55 316.13C38.9233 308.39 25.88 297.353 16.42 283.02C6.96 268.687 2.23 252.203 2.23 233.57C2.23 214.937 6.96 198.883 16.42 185.41C25.88 171.937 38.6367 162.19 54.69 156.17ZM169.5 91.67C169.5 75.6167 164.483 63.29 154.45 54.69C144.417 46.09 130.657 41.79 113.17 41.79C95.97 41.79 82.3533 46.09 72.32 54.69C62.2867 63.29 57.27 75.76 57.27 92.1C57.27 106.433 62.43 118.187 72.75 127.36C83.3567 136.247 96.83 140.69 113.17 140.69C129.51 140.69 142.983 136.103 153.59 126.93C164.197 117.757 169.5 106.003 169.5 91.67ZM113.17 177.67C94.25 177.67 78.77 182.4 66.73 191.86C54.9767 201.033 49.1 214.363 49.1 231.85C49.1 248.19 54.8333 261.52 66.3 271.84C77.7667 281.873 93.39 286.89 113.17 286.89C132.663 286.89 148 281.73 159.18 271.41C170.647 261.09 176.38 247.903 176.38 231.85C176.38 214.65 170.503 201.32 158.75 191.86C147.283 182.4 132.09 177.67 113.17 177.67Z" fill="white"/>
</g>
<defs>
<filter id="filter0_d_96_20" x="0.22998" y="0.939941" width="230.31" height="334.8" filterUnits="userSpaceOnUse" color-interpolation-filters="sRGB">
<feFlood flood-opacity="0" result="BackgroundImageFix"/>
<feColorMatrix in="SourceAlpha" type="matrix" values="0 0 0 0 0 0 0 0 0 0 0 0 0 0 0 0 0 0 127 0" result="hardAlpha"/>
<feOffset dx="2" dy="4"/>
<feGaussianBlur stdDeviation="2"/>
<feComposite in2="hardAlpha" operator="out"/>
<feColorMatrix type="matrix" values="0 0 0 0 0 0 0 0 0 0 0 0 0 0 0 0 0 0 0.25 0"/>
<feBlend mode="normal" in2="BackgroundImageFix" result="effect1_dropShadow_96_20"/>
<feBlend mode="normal" in="SourceGraphic" in2="effect1_dropShadow_96_20" result="shape"/>
</filter>
</defs>
</svg>
