<svg width="366" height="232" viewBox="0 0 366 232" fill="none" xmlns="http://www.w3.org/2000/svg">
<g filter="url(#filter0_d_96_9)">
<path d="M268.8 -9.53674e-07C286.133 -9.53674e-07 301.6 3.59999 315.2 10.8C329.067 18 339.867 28.6667 347.6 42.8C355.6 56.9333 359.6 74 359.6 94V224H314.4V100.8C314.4 81.0667 309.467 66 299.6 55.6C289.733 44.9333 276.267 39.6 259.2 39.6C242.133 39.6 228.533 44.9333 218.4 55.6C208.533 66 203.6 81.0667 203.6 100.8V224H158.4V100.8C158.4 81.0667 153.467 66 143.6 55.6C133.733 44.9333 120.267 39.6 103.2 39.6C86.1333 39.6 72.5333 44.9333 62.4 55.6C52.5333 66 47.6 81.0667 47.6 100.8V224H2V3.6H47.6V28.8C55.0667 19.7333 64.5333 12.6667 76 7.6C87.4667 2.53333 99.7333 -9.53674e-07 112.8 -9.53674e-07C130.4 -9.53674e-07 146.133 3.73333 160 11.2C173.867 18.6667 184.533 29.4667 192 43.6C198.667 30.2666 209.067 19.7333 223.2 12C237.333 4 252.533 -9.53674e-07 268.8 -9.53674e-07Z" fill="white"/>
</g>
<defs>
<filter id="filter0_d_96_9" x="0" y="0" width="365.6" height="232" filterUnits="userSpaceOnUse" color-interpolation-filters="sRGB">
<feFlood flood-opacity="0" result="BackgroundImageFix"/>
<feColorMatrix in="SourceAlpha" type="matrix" values="0 0 0 0 0 0 0 0 0 0 0 0 0 0 0 0 0 0 127 0" result="hardAlpha"/>
<feOffset dx="2" dy="4"/>
<feGaussianBlur stdDeviation="2"/>
<feComposite in2="hardAlpha" operator="out"/>
<feColorMatrix type="matrix" values="0 0 0 0 0 0 0 0 0 0 0 0 0 0 0 0 0 0 0.25 0"/>
<feBlend mode="normal" in2="BackgroundImageFix" result="effect1_dropShadow_96_9"/>
<feBlend mode="normal" in="SourceGraphic" in2="effect1_dropShadow_96_9" result="shape"/>
</filter>
</defs>
</svg>
