<svg width="233" height="236" viewBox="0 0 233 236" fill="none" xmlns="http://www.w3.org/2000/svg">
<g filter="url(#filter0_d_96_5)">
<path d="M112.6 227.6C91.8 227.6 73 222.933 56.2 213.6C39.4 204 26.2 190.667 16.6 173.6C7 156.267 2.2 136.267 2.2 113.6C2.2 91.2 7.13333 71.3333 17 54C26.8667 36.6667 40.3333 23.3333 57.4 14C74.4667 4.66666 93.5333 -9.53674e-07 114.6 -9.53674e-07C135.667 -9.53674e-07 154.733 4.66666 171.8 14C188.867 23.3333 202.333 36.6667 212.2 54C222.067 71.3333 227 91.2 227 113.6C227 136 221.933 155.867 211.8 173.2C201.667 190.533 187.8 204 170.2 213.6C152.867 222.933 133.667 227.6 112.6 227.6ZM112.6 188C124.333 188 135.267 185.2 145.4 179.6C155.8 174 164.2 165.6 170.6 154.4C177 143.2 180.2 129.6 180.2 113.6C180.2 97.6 177.133 84.1333 171 73.2C164.867 62 156.733 53.6 146.6 48C136.467 42.4 125.533 39.6 113.8 39.6C102.067 39.6 91.1333 42.4 81 48C71.1333 53.6 63.2667 62 57.4 73.2C51.5333 84.1333 48.6 97.6 48.6 113.6C48.6 137.333 54.6 155.733 66.6 168.8C78.8667 181.6 94.2 188 112.6 188Z" fill="white"/>
</g>
<defs>
<filter id="filter0_d_96_5" x="0.200012" y="0" width="232.8" height="235.6" filterUnits="userSpaceOnUse" color-interpolation-filters="sRGB">
<feFlood flood-opacity="0" result="BackgroundImageFix"/>
<feColorMatrix in="SourceAlpha" type="matrix" values="0 0 0 0 0 0 0 0 0 0 0 0 0 0 0 0 0 0 127 0" result="hardAlpha"/>
<feOffset dx="2" dy="4"/>
<feGaussianBlur stdDeviation="2"/>
<feComposite in2="hardAlpha" operator="out"/>
<feColorMatrix type="matrix" values="0 0 0 0 0 0 0 0 0 0 0 0 0 0 0 0 0 0 0.25 0"/>
<feBlend mode="normal" in2="BackgroundImageFix" result="effect1_dropShadow_96_5"/>
<feBlend mode="normal" in="SourceGraphic" in2="effect1_dropShadow_96_5" result="shape"/>
</filter>
</defs>
</svg>
