<svg width="185" height="236" viewBox="0 0 185 236" fill="none" xmlns="http://www.w3.org/2000/svg">
<g filter="url(#filter0_d_96_4)">
<path d="M94 227.6C76.6667 227.6 61.0667 224.533 47.2 218.4C33.6 212 22.8 203.467 14.8 192.8C6.8 181.867 2.53333 169.733 2 156.4H49.2C50 165.733 54.4 173.6 62.4 180C70.6667 186.133 80.9333 189.2 93.2 189.2C106 189.2 115.867 186.8 122.8 182C130 176.933 133.6 170.533 133.6 162.8C133.6 154.533 129.6 148.4 121.6 144.4C113.867 140.4 101.467 136 84.4 131.2C67.8667 126.667 54.4 122.267 44 118C33.6 113.733 24.5333 107.2 16.8 98.4C9.33333 89.6 5.6 78 5.6 63.6C5.6 51.8667 9.06667 41.2 16 31.6C22.9333 21.7333 32.8 14 45.6 8.39999C58.6667 2.79999 73.6 -9.53674e-07 90.4 -9.53674e-07C115.467 -9.53674e-07 135.6 6.4 150.8 19.2C166.267 31.7333 174.533 48.9333 175.6 70.8H130C129.2 60.9333 125.2 53.0667 118 47.2C110.8 41.3333 101.067 38.4 88.8 38.4C76.8 38.4 67.6 40.6667 61.2 45.2C54.8 49.7333 51.6 55.7333 51.6 63.2C51.6 69.0667 53.7333 74 58 78C62.2667 82 67.4667 85.2 73.6 87.6C79.7333 89.7333 88.8 92.5333 100.8 96C116.8 100.267 129.867 104.667 140 109.2C150.4 113.467 159.333 119.867 166.8 128.4C174.267 136.933 178.133 148.267 178.4 162.4C178.4 174.933 174.933 186.133 168 196C161.067 205.867 151.2 213.6 138.4 219.2C125.867 224.8 111.067 227.6 94 227.6Z" fill="white"/>
</g>
<defs>
<filter id="filter0_d_96_4" x="0" y="0" width="184.4" height="235.6" filterUnits="userSpaceOnUse" color-interpolation-filters="sRGB">
<feFlood flood-opacity="0" result="BackgroundImageFix"/>
<feColorMatrix in="SourceAlpha" type="matrix" values="0 0 0 0 0 0 0 0 0 0 0 0 0 0 0 0 0 0 127 0" result="hardAlpha"/>
<feOffset dx="2" dy="4"/>
<feGaussianBlur stdDeviation="2"/>
<feComposite in2="hardAlpha" operator="out"/>
<feColorMatrix type="matrix" values="0 0 0 0 0 0 0 0 0 0 0 0 0 0 0 0 0 0 0.25 0"/>
<feBlend mode="normal" in2="BackgroundImageFix" result="effect1_dropShadow_96_4"/>
<feBlend mode="normal" in="SourceGraphic" in2="effect1_dropShadow_96_4" result="shape"/>
</filter>
</defs>
</svg>
