<svg width="210" height="233" viewBox="0 0 210 233" fill="none" xmlns="http://www.w3.org/2000/svg">
<g filter="url(#filter0_d_96_7)">
<path d="M203.6 0.6V221H158V195C150.8 204.067 141.333 211.267 129.6 216.6C118.133 221.667 105.867 224.2 92.8 224.2C75.4667 224.2 59.8667 220.6 46 213.4C32.4 206.2 21.6 195.533 13.6 181.4C5.86667 167.267 2 150.2 2 130.2V0.6H47.2V123.4C47.2 143.133 52.1333 158.333 62 169C71.8667 179.4 85.3333 184.6 102.4 184.6C119.467 184.6 132.933 179.4 142.8 169C152.933 158.333 158 143.133 158 123.4V0.6H203.6Z" fill="white"/>
</g>
<defs>
<filter id="filter0_d_96_7" x="0" y="0.599976" width="209.6" height="231.6" filterUnits="userSpaceOnUse" color-interpolation-filters="sRGB">
<feFlood flood-opacity="0" result="BackgroundImageFix"/>
<feColorMatrix in="SourceAlpha" type="matrix" values="0 0 0 0 0 0 0 0 0 0 0 0 0 0 0 0 0 0 127 0" result="hardAlpha"/>
<feOffset dx="2" dy="4"/>
<feGaussianBlur stdDeviation="2"/>
<feComposite in2="hardAlpha" operator="out"/>
<feColorMatrix type="matrix" values="0 0 0 0 0 0 0 0 0 0 0 0 0 0 0 0 0 0 0.25 0"/>
<feBlend mode="normal" in2="BackgroundImageFix" result="effect1_dropShadow_96_7"/>
<feBlend mode="normal" in="SourceGraphic" in2="effect1_dropShadow_96_7" result="shape"/>
</filter>
</defs>
</svg>
